HIERARCHY
ROOT Hips
{
	OFFSET -0.001795 -0.223333 0.028219
	CHANNELS 6 Xposition Yposition Zposition Zrotation Yrotation Xrotation 
	JOINT LeftUpLeg
	{
		OFFSET 0.069520 -0.091406 -0.006815
		CHANNELS 3 Zrotation Yrotation Xrotation
		JOINT LeftLeg
		{
			OFFSET 0.034277 -0.375199 -0.004496
			CHANNELS 3 Zrotation Yrotation Xrotation
			JOINT LeftFoot
			{
				OFFSET -0.013596 -0.397961 -0.043693
				CHANNELS 3 Zrotation Yrotation Xrotation
				JOINT LeftToe
				{
					OFFSET 0.026358 -0.055791 0.119288
					CHANNELS 3 Zrotation Yrotation Xrotation
					End Site
					{
						OFFSET 0.000000 0.000000 0.000000
					}
				}
			}
		}
	}
	JOINT RightUpLeg
	{
		OFFSET -0.067670 -0.090522 -0.004320
		CHANNELS 3 Zrotation Yrotation Xrotation
		JOINT RightLeg
		{
			OFFSET -0.038290 -0.382569 -0.008850
			CHANNELS 3 Zrotation Yrotation Xrotation
			JOINT RightFoot
			{
				OFFSET 0.015774 -0.398415 -0.042312
				CHANNELS 3 Zrotation Yrotation Xrotation
				JOINT RightToe
				{
					OFFSET -0.025372 -0.048144 0.123348
					CHANNELS 3 Zrotation Yrotation Xrotation
					End Site
					{
						OFFSET 0.000000 0.000000 0.000000
					}
				}
			}
		}
	}
	JOINT Spine
	{
		OFFSET -0.002533 0.108963 -0.026696
		CHANNELS 3 Zrotation Yrotation Xrotation
		JOINT Spine1
		{
			OFFSET 0.005487 0.135180 0.001092
			CHANNELS 3 Zrotation Yrotation Xrotation
			JOINT Spine2
			{
				OFFSET 0.001457 0.052922 0.025425
				CHANNELS 3 Zrotation Yrotation Xrotation
				JOINT Neck
				{
					OFFSET -0.002778 0.213870 -0.042857
					CHANNELS 3 Zrotation Yrotation Xrotation
					JOINT Head
					{
						OFFSET 0.005152 0.064970 0.051349
						CHANNELS 3 Zrotation Yrotation Xrotation
						End Site
						{
							OFFSET 0.000000 0.000000 0.000000
						}
					}
				}
				JOINT LeftShoulder
				{
					OFFSET 0.078845 0.121749 -0.034090
					CHANNELS 3 Zrotation Yrotation Xrotation
					JOINT LeftArm
					{
						OFFSET 0.090977 0.030469 -0.008868
						CHANNELS 3 Zrotation Yrotation Xrotation
						JOINT LeftForeArm
						{
							OFFSET 0.259612 -0.012772 -0.027456
							CHANNELS 3 Zrotation Yrotation Xrotation
							JOINT LeftHand
							{
								OFFSET 0.249234 0.008986 -0.001171
								CHANNELS 3 Zrotation Yrotation Xrotation
								End Site
								{
									OFFSET 0.000000 0.000000 0.000000
								}
							}
						}
					}
				}
				JOINT RightShoulder
				{
					OFFSET -0.081759 0.118833 -0.038615
					CHANNELS 3 Zrotation Yrotation Xrotation
					JOINT RightArm
					{
						OFFSET -0.096012 0.032551 -0.009143
						CHANNELS 3 Zrotation Yrotation Xrotation
						JOINT RightForeArm
						{
							OFFSET -0.253742 -0.013329 -0.021401
							CHANNELS 3 Zrotation Yrotation Xrotation
							JOINT RightHand
							{
								OFFSET -0.255298 0.007772 -0.005559
								CHANNELS 3 Zrotation Yrotation Xrotation
								End Site
								{
									OFFSET 0.000000 0.000000 0.000000
								}
							}
						}
					}
				}
			}
		}
	}
}
MOTION
Frames: 10
Frame Time: 0.050000
0.000000 0.516204 0.000000 2.061865 1.418137 -2.571502 22.231135 7.888044 -74.707309 -15.844474 21.955592 110.927181 7.922982 13.604356 -19.582203 0.000000 0.000000 0.000000 -18.467074 -6.294293 -80.566899 13.563768 -17.420658 111.956442 -9.014713 -23.313035 -17.725690 0.000000 0.000000 0.000000 2.215116 -6.878246 83.696323 -6.394060 1.903257 -33.347784 -2.142529 3.735319 20.753063 11.126365 -5.525884 -19.857404 0.000000 0.000000 0.000000 -28.349908 -48.978538 28.985681 -9.392346 -31.945159 -0.374529 13.841758 -20.946772 -1.903754 0.000000 0.000000 0.000000 25.397174 35.751791 21.633134 3.764680 31.894832 -1.648253 -11.363864 12.157121 -0.734668 0.000000 0.000000 0.000000 
-0.002204 0.523080 0.014044 1.737444 1.000092 -0.921373 21.357236 7.571501 -75.453701 -14.746905 20.502677 111.595434 8.379580 15.397277 -17.596062 0.000000 0.000000 0.000000 -18.008062 -5.866765 -82.484485 13.438515 -17.324566 112.198073 -9.083320 -23.046112 -13.196247 0.000000 0.000000 0.000000 2.429795 -6.718962 82.274638 -8.546279 2.139927 -34.695416 0.358064 6.012773 22.863538 12.721395 -5.120579 -25.344360 0.000000 0.000000 0.000000 -28.950202 -50.892007 30.065533 -10.379849 -31.800578 -0.231387 14.599190 -21.366746 -2.065125 0.000000 0.000000 0.000000 26.121188 31.687625 20.219720 4.573128 32.047612 -1.752797 -15.156811 12.386118 -1.083000 0.000000 0.000000 0.000000 
-0.003529 0.536368 0.027229 2.055725 2.282629 -0.901950 18.987712 4.937826 -74.436866 -14.054447 18.011727 109.462414 9.361363 18.668156 -13.514135 0.000000 0.000000 0.000000 -17.557833 -6.122043 -80.441775 13.127863 -16.875635 111.751736 -9.824787 -25.132257 -10.992547 0.000000 0.000000 0.000000 2.790972 -7.820015 82.739834 -7.393707 1.974116 -35.742743 -1.709359 6.408196 21.818682 15.629571 -7.991918 -20.820589 0.000000 0.000000 0.000000 -32.080534 -48.709222 29.736566 -9.722118 -30.291180 -0.344526 11.704932 -22.505348 -1.591689 0.000000 0.000000 0.000000 29.059067 32.542238 22.050254 4.685512 28.654723 -1.651526 -14.377248 12.491334 -1.041639 0.000000 0.000000 0.000000 
-0.004267 0.553028 0.039381 2.640299 1.775067 -0.309306 18.535383 4.790417 -72.979009 -14.801935 19.072554 108.245315 2.625113 -1.647896 -15.204482 0.000000 0.000000 0.000000 -17.103367 -5.317575 -79.707848 11.755383 -14.061598 110.990064 -8.919953 -22.139456 -8.082402 0.000000 0.000000 0.000000 3.736665 -8.217324 81.836732 -9.987998 2.341872 -35.108650 -1.321244 5.578027 21.513537 15.802395 -7.365713 -23.813727 0.000000 0.000000 0.000000 -29.700288 -48.056126 28.496559 -11.898673 -30.174334 -0.078718 13.469539 -26.017928 -2.272459 0.000000 0.000000 0.000000 27.595969 30.747253 20.039410 6.201872 29.229395 -1.425831 -14.215386 13.672315 -1.121636 0.000000 0.000000 0.000000 
-0.004215 0.572549 0.050037 2.916298 2.031581 0.491387 17.759702 3.878775 -70.076000 -15.863294 19.103868 103.872040 -3.820688 -19.761447 -13.159488 0.000000 0.000000 0.000000 -17.087600 -5.144048 -76.526068 10.877496 -11.913780 107.767910 -8.120729 -19.784000 -9.465970 0.000000 0.000000 0.000000 3.100234 -7.694504 81.039570 -8.808662 2.139670 -35.720042 -0.636641 6.998291 21.730505 15.579040 -6.822504 -24.413160 0.000000 0.000000 0.000000 -27.582078 -47.250186 26.524260 -14.273977 -30.646300 0.315917 14.961952 -26.684389 -2.686842 0.000000 0.000000 0.000000 28.047533 30.206637 20.388299 6.835890 28.485297 -1.394043 -15.080675 13.017223 -1.135195 0.000000 0.000000 0.000000 
-0.003642 0.590658 0.059223 3.104770 1.936699 0.797153 16.966607 3.241442 -67.612773 -16.399183 18.631488 100.227590 -4.169827 -18.449268 -11.030678 0.000000 0.000000 0.000000 -17.243491 -4.941663 -73.943000 9.843489 -9.673679 104.848686 -6.685465 -15.458653 -8.939371 0.000000 0.000000 0.000000 4.043226 -8.373911 80.434044 -9.392547 2.247776 -35.035330 -1.336024 7.451296 20.472333 15.627575 -6.564469 -24.877172 0.000000 0.000000 0.000000 -24.791784 -46.327278 24.572672 -17.038828 -31.054997 0.817987 15.687974 -28.492338 -3.075604 0.000000 0.000000 0.000000 28.848760 28.509028 19.758271 7.776711 28.266329 -1.287349 -15.747586 14.417043 -1.343092 0.000000 0.000000 0.000000 
-0.003095 0.608322 0.067209 3.375835 2.383289 1.222145 15.676784 2.117969 -65.638186 -16.066749 16.891629 97.018255 -5.257627 -19.644167 -9.273732 0.000000 0.000000 0.000000 -17.549411 -5.129330 -71.230835 9.918848 -9.406164 101.120757 -6.995112 -16.491996 -7.918081 0.000000 0.000000 0.000000 4.819546 -9.070698 79.081802 -9.844828 2.247417 -36.135312 -1.228939 6.986836 21.507712 15.574920 -6.696043 -24.664713 0.000000 0.000000 0.000000 -25.608282 -45.747330 24.676361 -17.234316 -29.852232 0.665678 17.400298 -29.258885 -3.609459 0.000000 0.000000 0.000000 29.571269 27.665599 19.346257 8.269119 28.254367 -1.282251 -16.550963 15.288248 -1.529943 0.000000 0.000000 0.000000 
-0.003158 0.625063 0.073634 3.393698 2.428981 1.113075 14.899390 1.550372 -63.243188 -15.988001 15.845881 94.200696 -5.656569 -19.030042 -7.624058 0.000000 0.000000 0.000000 -16.931964 -4.421135 -68.079136 9.088980 -7.845288 97.946919 -6.818259 -15.831274 -8.866504 0.000000 0.000000 0.000000 4.810224 -8.876522 77.830887 -8.835816 2.164276 -35.317879 -1.660202 7.436254 20.477543 15.775935 -6.798745 -24.278052 0.000000 0.000000 0.000000 -25.627193 -45.720356 24.486855 -17.649115 -28.706506 0.685546 18.808634 -30.312139 -4.143602 0.000000 0.000000 0.000000 31.883642 26.873873 19.790881 8.083493 27.614938 -1.347508 -17.454308 16.461014 -1.790726 0.000000 0.000000 0.000000 
-0.003993 0.641617 0.078637 3.369463 2.800730 1.210379 14.322062 1.016700 -61.087161 -15.692697 14.552057 91.715949 -6.002947 -19.752925 -7.408717 0.000000 0.000000 0.000000 -16.605077 -4.120251 -65.190613 8.861646 -7.428260 95.165029 -6.899910 -15.865881 -10.245402 0.000000 0.000000 0.000000 5.086436 -9.039086 76.227548 -8.417359 2.136483 -34.740629 -2.066271 7.021888 20.000947 15.830917 -6.442331 -25.769490 0.000000 0.000000 0.000000 -25.053734 -46.149995 24.659683 -16.464554 -28.389196 0.500978 19.682623 -29.268411 -4.224452 0.000000 0.000000 0.000000 31.489025 26.791566 19.505086 9.400076 27.691359 -1.163356 -17.947684 17.804253 -2.015243 0.000000 0.000000 0.000000 
-0.004940 0.662102 0.082481 3.191519 3.116503 1.224622 13.819038 0.588954 -58.308482 -15.507992 13.222587 88.210439 -6.045673 -19.896288 -7.392034 0.000000 0.000000 0.000000 -16.178862 -3.712694 -61.969502 8.466785 -6.760879 91.656159 -6.537862 -14.548845 -11.097684 0.000000 0.000000 0.000000 5.429840 -9.231486 74.749736 -8.168277 2.079270 -35.233744 -1.920997 6.248011 20.344065 15.770427 -6.030864 -27.825034 0.000000 0.000000 0.000000 -25.077836 -46.036428 24.829944 -16.252402 -27.239537 0.327781 21.157649 -30.159777 -4.767173 0.000000 0.000000 0.000000 31.079771 26.589479 18.937193 10.584704 28.101914 -0.985891 -18.062377 19.790500 -2.286562 0.000000 0.000000 0.000000 
